<?xml version="1.0" encoding="utf-8"?>
<!-- Generator: Adobe Illustrator 18.1.0, SVG Export Plug-In . SVG Version: 6.00 Build 0)  -->
<!DOCTYPE svg PUBLIC "-//W3C//DTD SVG 1.0//EN" "http://www.w3.org/TR/2001/REC-SVG-20010904/DTD/svg10.dtd">
<svg version="1.0" xmlns="http://www.w3.org/2000/svg" xmlns:xlink="http://www.w3.org/1999/xlink" x="0px" y="0px"
	 viewBox="-2.432 33.5 101 26" enable-background="new -2.432 33.5 101 26" xml:space="preserve">
<path fill="#0D4E94" d="M13.568,13.594V2.428h1.923c1.021,0,1.78,0.266,2.274,0.799c0.496,0.533,0.743,1.347,0.743,2.443
	c0,1.047-0.237,1.859-0.718,2.436c-0.478,0.58-1.148,0.87-2.015,0.87c-0.108,0-0.193,0-0.249-0.002
	c-0.06-0.003-0.113-0.008-0.163-0.013l-0.006,4.634L13.568,13.594L13.568,13.594z M15.359,7.271c0.021,0,0.054,0.002,0.098,0.008
	c0.045,0.005,0.078,0.008,0.101,0.008c0.393,0,0.691-0.136,0.898-0.41c0.206-0.271,0.308-0.663,0.308-1.175
	c0-0.53-0.097-0.921-0.292-1.174c-0.192-0.251-0.498-0.379-0.912-0.379c-0.021,0-0.055,0.003-0.101,0.008
	c-0.043,0.005-0.076,0.008-0.098,0.008L15.359,7.271L15.359,7.271z"/>
<path fill="#0D4E94" d="M18.707,13.594l2.159-11.166h1.938l2.059,11.166h-1.851l-0.309-1.958h-1.863l-0.286,1.958H18.707z
	 M21.176,9.899h1.234c-0.128-0.78-0.241-1.598-0.343-2.451c-0.103-0.853-0.191-1.754-0.268-2.702
	c-0.093,0.835-0.192,1.684-0.297,2.542C21.399,8.148,21.292,9.018,21.176,9.899z"/>
<path fill="#0D4E94" d="M32.26,13.283l-1.004,1.049l-0.872-1.155c-0.192,0.153-0.409,0.266-0.649,0.342
	c-0.239,0.073-0.512,0.108-0.816,0.108c-1.03,0-1.828-0.512-2.398-1.537c-0.57-1.023-0.854-2.464-0.854-4.32
	c0-1.723,0.291-3.081,0.87-4.072c0.581-0.992,1.375-1.488,2.383-1.488c1.039,0,1.841,0.511,2.412,1.532
	c0.57,1.024,0.854,2.47,0.854,4.341c0,0.919-0.072,1.702-0.218,2.353c-0.144,0.65-0.364,1.184-0.661,1.595L32.26,13.283z
	 M29.217,9.247l0.87,1.154c0.085-0.311,0.148-0.66,0.188-1.052c0.042-0.389,0.061-0.854,0.061-1.389c0-1.201-0.12-2.109-0.358-2.717
	c-0.241-0.609-0.594-0.915-1.059-0.915c-0.482,0-0.841,0.313-1.073,0.938c-0.231,0.625-0.349,1.587-0.349,2.886
	c0,1.115,0.12,1.966,0.358,2.551c0.24,0.582,0.587,0.875,1.045,0.875c0.04,0,0.081-0.002,0.128-0.008
	c0.045-0.006,0.1-0.014,0.158-0.023l-0.973-1.3L29.217,9.247z"/>
<path fill="#0D4E94" d="M39.456,2.428V9.44c0,0.859-0.021,1.468-0.063,1.826c-0.043,0.358-0.113,0.657-0.21,0.89
	c-0.227,0.538-0.549,0.934-0.977,1.191c-0.425,0.258-0.972,0.387-1.642,0.387c-0.67,0-1.22-0.129-1.648-0.387
	c-0.432-0.259-0.757-0.652-0.976-1.191c-0.103-0.236-0.173-0.539-0.217-0.9c-0.041-0.362-0.063-0.965-0.063-1.814v-0.33V2.428h1.85
	v7.189c0,0.911,0.078,1.501,0.233,1.761c0.154,0.265,0.427,0.396,0.822,0.396c0.4,0,0.679-0.134,0.828-0.401
	c0.149-0.268,0.226-0.852,0.226-1.754v-7.19H39.456z"/>
<polygon fill="#0D4E94" points="41.26,13.594 41.26,2.428 45.161,2.428 45.161,4.493 43.051,4.493 43.051,6.749 44.963,6.749 
	44.963,8.798 43.051,8.798 43.051,11.414 45.161,11.414 45.161,13.594 "/>
<polygon fill="#0D4E94" points="48.163,13.594 48.163,4.493 46.747,4.493 46.747,2.428 51.439,2.428 51.439,4.493 50.024,4.493 
	50.024,13.594 "/>
<polygon fill="#0D4E94" points="52.969,13.594 52.969,2.428 56.871,2.428 56.871,4.493 54.76,4.493 54.76,6.749 56.673,6.749 
	56.673,8.798 54.76,8.798 54.76,11.414 56.871,11.414 56.871,13.594 "/>
<path fill="#0D4E94" d="M62.063,13.594l-0.73-2.271c-0.071-0.235-0.14-0.491-0.199-0.767c-0.061-0.28-0.114-0.572-0.163-0.877
	c-0.045,0.311-0.098,0.605-0.151,0.882c-0.057,0.28-0.112,0.533-0.171,0.762l-0.637,2.271h-2.108l2.145-5.652l-1.956-5.514h1.942
	l0.7,2.347c0.037,0.128,0.08,0.3,0.126,0.514c0.048,0.214,0.1,0.491,0.161,0.833c0.049-0.29,0.102-0.551,0.15-0.781
	c0.051-0.229,0.102-0.42,0.151-0.574l0.688-2.339h1.912l-1.95,5.514l2.098,5.652H62.063z"/>
<path fill="#0D4E94" d="M65.08,13.594V2.428h1.924c1.021,0,1.78,0.266,2.274,0.799c0.497,0.533,0.743,1.347,0.743,2.443
	c0,1.047-0.238,1.859-0.718,2.436c-0.479,0.58-1.148,0.87-2.015,0.87c-0.107,0-0.191,0-0.249-0.002
	c-0.059-0.003-0.113-0.008-0.163-0.013l-0.007,4.634L65.08,13.594L65.08,13.594z M66.871,7.271c0.021,0,0.055,0.002,0.098,0.008
	c0.047,0.005,0.078,0.008,0.101,0.008c0.393,0,0.69-0.136,0.897-0.41c0.205-0.271,0.309-0.663,0.309-1.175
	c0-0.53-0.099-0.921-0.292-1.174c-0.193-0.251-0.5-0.379-0.914-0.379c-0.021,0-0.054,0.003-0.101,0.008
	c-0.043,0.005-0.075,0.008-0.098,0.008V7.271z"/>
<path fill="#0D4E94" d="M71.063,13.594V2.428h1.925c1.059,0,1.826,0.25,2.301,0.75c0.479,0.501,0.717,1.297,0.717,2.394
	c0,0.796-0.122,1.437-0.364,1.917c-0.245,0.482-0.611,0.819-1.104,1.013l1.78,5.093h-1.952l-1.511-4.618v4.618L71.063,13.594
	L71.063,13.594z M72.854,7.271c0.021,0,0.057,0.002,0.103,0.008c0.049,0.005,0.084,0.008,0.106,0.008c0.4,0,0.705-0.136,0.905-0.405
	c0.205-0.271,0.308-0.668,0.308-1.196c0-0.535-0.094-0.924-0.28-1.169c-0.186-0.245-0.483-0.369-0.895-0.369
	c-0.063,0-0.113,0.003-0.146,0.005c-0.034,0.002-0.064,0.005-0.095,0.01L72.854,7.271z"/>
<polygon fill="#0D4E94" points="77.512,13.594 77.512,2.428 81.415,2.428 81.415,4.493 79.303,4.493 79.303,6.749 81.216,6.749 
	81.216,8.798 79.303,8.798 79.303,11.414 81.415,11.414 81.415,13.594 "/>
<path fill="#0D4E94" d="M82.959,13.13v-2.317c0.231,0.246,0.461,0.429,0.686,0.55c0.226,0.123,0.453,0.184,0.681,0.184
	c0.314,0,0.56-0.1,0.74-0.297c0.18-0.199,0.271-0.471,0.271-0.813c0-0.423-0.243-0.882-0.73-1.375
	c-0.137-0.139-0.238-0.246-0.306-0.321c-0.565-0.614-0.957-1.162-1.17-1.65c-0.209-0.486-0.315-1.037-0.315-1.655
	c0-0.963,0.226-1.741,0.678-2.336c0.45-0.593,1.04-0.89,1.769-0.89c0.259,0,0.513,0.044,0.765,0.133
	c0.253,0.088,0.518,0.229,0.798,0.417v1.971c-0.326-0.188-0.579-0.319-0.759-0.389c-0.182-0.07-0.341-0.107-0.479-0.107
	c-0.267,0-0.484,0.102-0.653,0.303c-0.171,0.201-0.255,0.465-0.255,0.791c0,0.284,0.063,0.551,0.19,0.799
	c0.127,0.248,0.423,0.613,0.89,1.097c0.622,0.645,1.024,1.177,1.201,1.603c0.178,0.428,0.267,0.94,0.267,1.543
	c0,1.016-0.238,1.816-0.716,2.406c-0.475,0.588-1.125,0.883-1.946,0.883c-0.313,0-0.604-0.043-0.867-0.131
	C83.426,13.441,83.183,13.309,82.959,13.13"/>
<path fill="#0D4E94" d="M88.336,13.13v-2.317c0.232,0.246,0.463,0.429,0.687,0.55c0.226,0.123,0.453,0.184,0.682,0.184
	c0.313,0,0.559-0.1,0.738-0.297c0.181-0.199,0.271-0.471,0.271-0.813c0-0.423-0.242-0.882-0.729-1.375
	c-0.138-0.139-0.238-0.246-0.308-0.321c-0.564-0.614-0.955-1.162-1.168-1.65c-0.211-0.486-0.315-1.037-0.315-1.655
	c0-0.963,0.226-1.741,0.676-2.336c0.451-0.593,1.041-0.89,1.77-0.89c0.259,0,0.513,0.044,0.765,0.133
	C91.656,2.431,91.92,2.572,92.2,2.76v1.971c-0.325-0.188-0.579-0.319-0.759-0.389c-0.181-0.07-0.341-0.107-0.479-0.107
	c-0.268,0-0.485,0.102-0.655,0.303c-0.17,0.201-0.254,0.465-0.254,0.791c0,0.284,0.063,0.551,0.19,0.799
	c0.127,0.248,0.423,0.613,0.889,1.097c0.623,0.645,1.025,1.177,1.201,1.603c0.179,0.428,0.269,0.94,0.269,1.543
	c0,1.016-0.238,1.816-0.717,2.406c-0.475,0.588-1.126,0.883-1.946,0.883c-0.313,0-0.603-0.043-0.867-0.131
	C88.803,13.441,88.562,13.309,88.336,13.13"/>
<path fill="#0D4E94" d="M7.225,24.209h91.343V21.25L10.073,21.31c-3.052,0-5.41-3.761-5.5-7.104v-0.004v-0.001l0,0l-0.002,1.704
	v-1.793v-0.047l-0.003-0.002v-0.051V-1.791l-7,0v18.248C-2.432,20.822,7.225,24.209,7.225,24.209z"/>
<path fill="#0D4E94" d="M98.132,16.545h-85.6c-1.521,0-2.659-1.437-2.659-2.891V-1.791H7.244v15.805
	c0,2.522,1.699,4.383,4.381,4.383h86.507V16.545z"/>
<rect x="98.232" y="14.631" fill="#0D4E94" width="0.336" height="0.335"/>
<path fill="#0D4E94" d="M96.938,14.043h0.397c0.085,0,0.147-0.018,0.188-0.051c0.039-0.035,0.062-0.091,0.062-0.166
	c0-0.069-0.022-0.125-0.061-0.16c-0.038-0.037-0.099-0.056-0.175-0.056h-0.412L96.938,14.043L96.938,14.043z M96.601,14.966v-1.638
	h0.794c0.18,0,0.312,0.037,0.397,0.113c0.086,0.077,0.129,0.193,0.129,0.352c0,0.101-0.021,0.184-0.063,0.25
	c-0.042,0.066-0.102,0.111-0.182,0.137c0.072,0.025,0.123,0.063,0.152,0.115c0.029,0.053,0.048,0.134,0.053,0.242l0.006,0.193
	c0,0.002,0,0.004,0,0.008c0.002,0.096,0.023,0.156,0.064,0.176v0.052h-0.37c-0.012-0.023-0.021-0.052-0.026-0.085
	c-0.007-0.034-0.012-0.074-0.012-0.121l-0.005-0.172c-0.004-0.102-0.023-0.17-0.059-0.206c-0.033-0.035-0.097-0.054-0.186-0.054
	h-0.357v0.638H96.601z"/>
<rect x="95.94" y="14.631" fill="#0D4E94" width="0.334" height="0.335"/>
<polygon fill="#0D4E94" points="93.97,14.966 93.97,13.328 94.469,13.328 94.795,14.574 95.115,13.328 95.615,13.328 95.615,14.966 
	95.3,14.966 95.3,13.644 94.968,14.966 94.623,14.966 94.287,13.644 94.287,14.966 "/>
<path fill="#FFFFFF" d="M13.568,48.885V37.719h1.923c1.021,0,1.78,0.266,2.274,0.799c0.496,0.533,0.743,1.347,0.743,2.443
	c0,1.047-0.237,1.859-0.718,2.436c-0.478,0.58-1.148,0.87-2.015,0.87c-0.108,0-0.193,0-0.249-0.002
	c-0.06-0.003-0.113-0.008-0.163-0.013l-0.006,4.634L13.568,48.885L13.568,48.885z M15.359,42.562c0.021,0,0.054,0.002,0.098,0.008
	c0.045,0.005,0.078,0.008,0.101,0.008c0.393,0,0.691-0.136,0.898-0.41c0.206-0.271,0.308-0.663,0.308-1.175
	c0-0.53-0.097-0.921-0.292-1.174c-0.192-0.251-0.498-0.379-0.912-0.379c-0.021,0-0.055,0.003-0.101,0.008
	c-0.043,0.005-0.076,0.008-0.098,0.008L15.359,42.562L15.359,42.562z"/>
<path fill="#FFFFFF" d="M18.707,48.885l2.159-11.166h1.938l2.059,11.166h-1.851l-0.309-1.958h-1.863l-0.286,1.958H18.707z
	 M21.176,45.19h1.234c-0.128-0.78-0.241-1.598-0.343-2.451c-0.103-0.854-0.191-1.754-0.268-2.702
	c-0.093,0.835-0.192,1.684-0.297,2.542C21.399,43.439,21.292,44.309,21.176,45.19z"/>
<path fill="#FFFFFF" d="M32.26,48.574l-1.004,1.049l-0.872-1.155c-0.192,0.153-0.409,0.266-0.649,0.342
	c-0.239,0.073-0.512,0.108-0.816,0.108c-1.03,0-1.828-0.512-2.398-1.537c-0.57-1.023-0.854-2.464-0.854-4.32
	c0-1.723,0.291-3.081,0.87-4.072c0.581-0.992,1.375-1.488,2.383-1.488c1.039,0,1.841,0.511,2.412,1.532
	c0.57,1.024,0.854,2.47,0.854,4.341c0,0.919-0.072,1.702-0.218,2.353c-0.144,0.65-0.364,1.184-0.661,1.595L32.26,48.574z
	 M29.217,44.538l0.87,1.154c0.085-0.311,0.148-0.66,0.188-1.052c0.042-0.389,0.061-0.854,0.061-1.389
	c0-1.201-0.12-2.109-0.358-2.717c-0.241-0.609-0.594-0.915-1.059-0.915c-0.482,0-0.841,0.313-1.073,0.938
	c-0.231,0.625-0.349,1.587-0.349,2.886c0,1.115,0.12,1.966,0.358,2.551c0.24,0.582,0.587,0.875,1.045,0.875
	c0.04,0,0.081-0.002,0.128-0.008c0.045-0.006,0.1-0.014,0.158-0.023l-0.973-1.3L29.217,44.538z"/>
<path fill="#FFFFFF" d="M39.456,37.719v7.012c0,0.859-0.021,1.468-0.063,1.826c-0.043,0.358-0.113,0.657-0.21,0.89
	c-0.227,0.538-0.549,0.934-0.977,1.19c-0.425,0.258-0.972,0.387-1.642,0.387c-0.67,0-1.22-0.129-1.648-0.387
	c-0.432-0.259-0.757-0.652-0.976-1.19c-0.103-0.236-0.173-0.539-0.217-0.9c-0.041-0.362-0.063-0.965-0.063-1.815v-0.33v-6.683h1.85
	v7.189c0,0.911,0.078,1.501,0.233,1.761c0.154,0.265,0.427,0.396,0.822,0.396c0.4,0,0.679-0.134,0.828-0.401
	c0.149-0.268,0.226-0.852,0.226-1.754v-7.19H39.456z"/>
<polygon fill="#FFFFFF" points="41.26,48.885 41.26,37.719 45.161,37.719 45.161,39.784 43.051,39.784 43.051,42.04 44.963,42.04 
	44.963,44.089 43.051,44.089 43.051,46.705 45.161,46.705 45.161,48.885 "/>
<polygon fill="#FFFFFF" points="48.163,48.885 48.163,39.784 46.747,39.784 46.747,37.719 51.439,37.719 51.439,39.784 
	50.024,39.784 50.024,48.885 "/>
<polygon fill="#FFFFFF" points="52.969,48.885 52.969,37.719 56.871,37.719 56.871,39.784 54.76,39.784 54.76,42.04 56.673,42.04 
	56.673,44.089 54.76,44.089 54.76,46.705 56.871,46.705 56.871,48.885 "/>
<path fill="#FFFFFF" d="M62.063,48.885l-0.73-2.271c-0.071-0.235-0.14-0.491-0.199-0.767c-0.061-0.28-0.114-0.572-0.163-0.877
	c-0.045,0.311-0.098,0.605-0.151,0.882c-0.057,0.28-0.112,0.533-0.171,0.762l-0.637,2.271h-2.108l2.145-5.652l-1.956-5.514h1.942
	l0.7,2.347c0.037,0.128,0.08,0.3,0.126,0.514c0.048,0.214,0.1,0.491,0.161,0.833c0.049-0.29,0.102-0.551,0.15-0.781
	c0.051-0.229,0.102-0.42,0.151-0.574l0.688-2.339h1.912l-1.95,5.514l2.098,5.652H62.063z"/>
<path fill="#FFFFFF" d="M65.08,48.885V37.719h1.924c1.021,0,1.78,0.266,2.274,0.799c0.497,0.533,0.743,1.347,0.743,2.443
	c0,1.047-0.238,1.859-0.718,2.436c-0.479,0.58-1.148,0.87-2.015,0.87c-0.107,0-0.191,0-0.249-0.002
	c-0.059-0.003-0.113-0.008-0.163-0.013l-0.007,4.634L65.08,48.885L65.08,48.885z M66.871,42.562c0.021,0,0.055,0.002,0.098,0.008
	c0.047,0.005,0.078,0.008,0.101,0.008c0.393,0,0.69-0.136,0.897-0.41c0.205-0.271,0.309-0.663,0.309-1.175
	c0-0.53-0.099-0.921-0.292-1.174c-0.193-0.251-0.5-0.379-0.914-0.379c-0.021,0-0.054,0.003-0.101,0.008
	c-0.043,0.005-0.075,0.008-0.098,0.008V42.562z"/>
<path fill="#FFFFFF" d="M71.063,48.885V37.719h1.925c1.059,0,1.826,0.25,2.301,0.75c0.479,0.501,0.717,1.297,0.717,2.394
	c0,0.796-0.122,1.437-0.364,1.917c-0.245,0.482-0.611,0.819-1.104,1.013l1.78,5.093h-1.952l-1.511-4.618v4.618L71.063,48.885
	L71.063,48.885z M72.854,42.562c0.021,0,0.057,0.002,0.103,0.008c0.049,0.005,0.084,0.008,0.106,0.008
	c0.4,0,0.705-0.136,0.905-0.405c0.205-0.271,0.308-0.668,0.308-1.196c0-0.535-0.094-0.924-0.28-1.169
	c-0.186-0.245-0.483-0.369-0.895-0.369c-0.063,0-0.113,0.003-0.146,0.005c-0.034,0.002-0.064,0.005-0.095,0.01L72.854,42.562z"/>
<polygon fill="#FFFFFF" points="77.512,48.885 77.512,37.719 81.415,37.719 81.415,39.784 79.303,39.784 79.303,42.04 81.216,42.04 
	81.216,44.089 79.303,44.089 79.303,46.705 81.415,46.705 81.415,48.885 "/>
<path fill="#FFFFFF" d="M82.959,48.421v-2.317c0.231,0.246,0.461,0.429,0.686,0.55c0.226,0.123,0.453,0.184,0.681,0.184
	c0.314,0,0.56-0.1,0.74-0.297c0.18-0.199,0.271-0.471,0.271-0.813c0-0.423-0.243-0.882-0.73-1.375
	c-0.137-0.139-0.238-0.246-0.306-0.321c-0.565-0.614-0.957-1.162-1.17-1.65c-0.209-0.486-0.315-1.037-0.315-1.655
	c0-0.963,0.226-1.741,0.678-2.336c0.45-0.593,1.04-0.89,1.769-0.89c0.259,0,0.513,0.044,0.765,0.133
	c0.253,0.088,0.518,0.229,0.798,0.417v1.971c-0.326-0.188-0.579-0.319-0.759-0.389c-0.182-0.07-0.341-0.107-0.479-0.107
	c-0.267,0-0.484,0.102-0.653,0.303c-0.171,0.201-0.255,0.465-0.255,0.791c0,0.284,0.063,0.551,0.19,0.799
	c0.127,0.248,0.423,0.613,0.89,1.097c0.622,0.645,1.024,1.177,1.201,1.603c0.178,0.428,0.267,0.94,0.267,1.543
	c0,1.016-0.238,1.816-0.716,2.406c-0.475,0.588-1.125,0.883-1.946,0.883c-0.313,0-0.604-0.043-0.867-0.131
	C83.426,48.732,83.183,48.6,82.959,48.421"/>
<path fill="#FFFFFF" d="M88.336,48.421v-2.317c0.232,0.246,0.463,0.429,0.687,0.55c0.226,0.123,0.453,0.184,0.682,0.184
	c0.313,0,0.559-0.1,0.738-0.297c0.181-0.199,0.271-0.471,0.271-0.813c0-0.423-0.242-0.882-0.729-1.375
	c-0.138-0.139-0.238-0.246-0.308-0.321c-0.564-0.614-0.955-1.162-1.168-1.65c-0.211-0.486-0.315-1.037-0.315-1.655
	c0-0.963,0.226-1.741,0.676-2.336c0.451-0.593,1.041-0.89,1.77-0.89c0.259,0,0.513,0.044,0.765,0.133
	c0.254,0.088,0.518,0.229,0.798,0.417v1.971c-0.325-0.188-0.579-0.319-0.759-0.389c-0.181-0.07-0.341-0.107-0.479-0.107
	c-0.268,0-0.485,0.102-0.655,0.303c-0.17,0.201-0.254,0.465-0.254,0.791c0,0.284,0.063,0.551,0.19,0.799
	c0.127,0.248,0.423,0.613,0.889,1.097c0.623,0.645,1.025,1.177,1.201,1.603c0.179,0.428,0.269,0.94,0.269,1.543
	c0,1.016-0.238,1.816-0.717,2.406c-0.475,0.588-1.126,0.883-1.946,0.883c-0.313,0-0.603-0.043-0.867-0.131
	C88.803,48.732,88.562,48.6,88.336,48.421"/>
<path fill="#FFFFFF" d="M7.225,59.5h91.343v-2.959l-88.495,0.061c-3.052,0-5.41-3.761-5.5-7.104v-0.004v-0.001l0,0l-0.002,1.704
	v-1.793v-0.047l-0.003-0.002v-0.051V33.5h-7v18.248C-2.432,56.113,7.225,59.5,7.225,59.5z"/>
<path fill="#FFFFFF" d="M98.132,51.836h-85.6c-1.521,0-2.659-1.438-2.659-2.891V33.5H7.244v15.805c0,2.521,1.699,4.383,4.381,4.383
	h86.507V51.836z"/>
<rect x="98.232" y="49.922" fill="#FFFFFF" width="0.336" height="0.335"/>
<path fill="#FFFFFF" d="M96.938,49.334h0.397c0.085,0,0.147-0.018,0.188-0.051c0.039-0.035,0.062-0.091,0.062-0.166
	c0-0.069-0.022-0.125-0.061-0.16c-0.038-0.037-0.099-0.056-0.175-0.056h-0.412L96.938,49.334L96.938,49.334z M96.601,50.257v-1.638
	h0.794c0.18,0,0.312,0.037,0.397,0.113c0.086,0.077,0.129,0.193,0.129,0.352c0,0.101-0.021,0.184-0.063,0.25
	c-0.042,0.066-0.102,0.111-0.182,0.137c0.072,0.025,0.123,0.063,0.152,0.115c0.029,0.053,0.048,0.134,0.053,0.242l0.006,0.193
	c0,0.002,0,0.004,0,0.008c0.002,0.096,0.023,0.156,0.064,0.176v0.052h-0.37c-0.012-0.023-0.021-0.052-0.026-0.085
	c-0.007-0.034-0.012-0.074-0.012-0.121l-0.005-0.172c-0.004-0.102-0.023-0.17-0.059-0.206c-0.033-0.035-0.097-0.054-0.186-0.054
	h-0.357v0.638H96.601z"/>
<rect x="95.94" y="49.922" fill="#FFFFFF" width="0.334" height="0.335"/>
<polygon fill="#FFFFFF" points="93.97,50.257 93.97,48.619 94.469,48.619 94.795,49.865 95.115,48.619 95.615,48.619 95.615,50.257 
	95.3,50.257 95.3,48.935 94.968,50.257 94.623,50.257 94.287,48.935 94.287,50.257 "/>
</svg>
